<?xml version="1.0" standalone="no"?>
<!DOCTYPE svg PUBLIC "-//W3C//DTD SVG 20010904//EN"
 "http://www.w3.org/TR/2001/REC-SVG-20010904/DTD/svg10.dtd">
<svg version="1.0" xmlns="http://www.w3.org/2000/svg"
 width="1920.000000pt" height="1080.000000pt" viewBox="0 0 1920.000000 1080.000000"
 preserveAspectRatio="xMidYMid meet">

<g transform="translate(0.000000,1080.000000) scale(0.100000,-0.100000)"
fill="#000000" stroke="none">
<path d="M14810 7070 c0 -973 1 -1031 18 -1036 60 -19 98 -43 143 -90 61 -65
83 -113 108 -235 11 -52 28 -123 38 -159 l18 -65 220 -126 c475 -271 1550
-888 1737 -995 109 -63 200 -114 203 -114 3 0 5 531 5 1180 0 1297 4 1224 -61
1272 -19 14 -155 95 -304 180 -148 86 -533 306 -855 491 -673 386 -1252 717
-1262 724 -5 2 -8 -460 -8 -1027z m1253 -514 c3 -8 -25 -70 -63 -137 -38 -68
-70 -133 -70 -145 0 -19 32 -57 55 -65 6 -2 52 -32 102 -67 73 -50 94 -71 103
-98 22 -64 13 -75 -180 -206 -30 -21 -77 -53 -105 -73 -55 -39 -76 -34 -51 12
8 15 28 54 43 85 15 32 34 57 41 58 6 0 12 8 12 18 0 10 7 3 18 -17 22 -44 57
-58 73 -30 6 12 8 31 5 44 -11 43 -86 124 -163 176 -43 29 -95 66 -115 82 -40
32 -64 84 -54 120 5 19 119 109 284 225 53 36 58 38 65 18z"/>
<path d="M11604 7701 c3 -5 -1 -14 -9 -21 -7 -6 -12 -17 -10 -23 16 -53 14
-64 -10 -75 l-25 -11 25 -50 c24 -47 34 -118 16 -106 -6 3 -8 -11 -5 -32 4
-29 2 -35 -7 -26 -10 10 -20 6 -46 -17 -19 -17 -39 -30 -45 -30 -6 0 -3 -10 8
-22 10 -13 12 -18 4 -12 -18 14 -47 12 -79 -5 -19 -11 -21 -15 -10 -23 10 -7
4 -8 -19 -5 -33 4 -63 -15 -42 -28 17 -11 12 -27 -6 -17 -18 10 -64 4 -64 -9
0 -5 -9 -9 -20 -9 -11 0 -20 -4 -20 -8 0 -4 -35 -9 -77 -10 -43 -1 -90 -5
-106 -8 -34 -7 -101 43 -111 81 -4 15 -11 23 -17 19 -14 -8 -9 78 5 88 6 4 7
10 2 15 -4 4 -12 0 -17 -10 -6 -9 -15 -17 -22 -17 -7 0 -28 -11 -47 -24 -20
-13 -44 -25 -55 -28 -11 -2 -20 -11 -19 -19 1 -8 -7 -15 -17 -15 -10 0 -15 4
-13 8 9 14 -2 9 -25 -11 -16 -14 -18 -21 -9 -24 7 -3 -2 -3 -20 0 -29 5 -38 1
-75 -39 -70 -72 -78 -131 -55 -389 10 -117 9 -168 -6 -357 -15 -188 -16 -242
-6 -359 6 -76 17 -249 24 -385 6 -136 15 -251 20 -255 16 -16 130 -7 178 15
l48 21 9 -37 c29 -110 41 -288 21 -308 -8 -8 -3 -56 15 -160 39 -226 42 -237
61 -251 51 -37 209 -47 282 -17 l41 16 3 609 c3 529 5 611 18 619 13 8 12 10
-2 10 -16 0 -18 11 -18 90 0 84 2 92 28 119 36 39 290 184 308 177 8 -3 12 -1
9 4 -3 5 6 12 20 16 14 3 25 10 25 15 0 5 8 6 18 2 9 -3 14 -2 10 2 -11 11 29
38 44 29 6 -4 8 -3 5 3 -4 6 0 14 9 17 15 6 16 23 8 159 -11 206 -9 233 22
291 21 38 27 62 26 110 0 33 -2 165 -4 291 l-3 230 -33 67 c-20 41 -47 78 -70
96 -38 29 -77 49 -68 33z m-7 -193 c-3 -8 -6 -5 -6 6 -1 11 2 17 5 13 3 -3 4
-12 1 -19z m100 -138 c-2 -23 -10 -17 -12 10 -1 10 2 17 6 14 4 -2 7 -13 6
-24z m-717 -201 c0 -5 -8 -9 -17 -8 -11 0 -13 3 -5 6 6 2 9 10 6 15 -4 7 -2 8
4 4 7 -4 12 -11 12 -17z m-140 -93 c0 -3 -4 -8 -10 -11 -5 -3 -10 -1 -10 4 0
6 5 11 10 11 6 0 10 -2 10 -4z m17 -168 c-3 -7 -5 -2 -5 12 0 14 2 19 5 13 2
-7 2 -19 0 -25z m-9 -382 c7 -35 12 -85 12 -112 -1 -74 -43 -234 -62 -234 -4
0 -8 28 -8 63 0 75 31 347 40 347 4 0 12 -29 18 -64z"/>
<path d="M11470 7537 c-30 -15 -38 -37 -12 -37 21 0 58 35 45 43 -5 3 -20 0
-33 -6z"/>
<path d="M14100 6873 c-123 -20 -179 -61 -187 -137 -3 -25 0 -59 6 -75 12 -27
14 -28 51 -19 22 6 56 7 76 3 l37 -6 -32 -27 c-17 -15 -38 -47 -46 -71 -19
-56 -19 -196 0 -297 22 -114 7 -138 -60 -94 -16 11 -36 20 -42 20 -18 0 -16
-33 4 -74 13 -29 14 -40 5 -61 -18 -39 -15 -89 7 -109 11 -10 45 -24 78 -33
32 -8 64 -18 72 -23 11 -6 21 11 43 73 15 45 28 90 28 101 0 11 -12 53 -26 94
-28 81 -28 111 0 217 14 54 35 85 58 85 22 0 46 -42 53 -91 17 -131 51 -178
150 -203 93 -25 106 -22 164 35 62 61 92 106 114 173 47 137 -10 367 -113 460
-52 47 -142 66 -297 65 -65 -1 -129 -4 -143 -6z"/>
<path d="M12787 6693 c-4 -3 -7 -13 -7 -22 1 -13 3 -13 11 2 11 19 8 33 -4 20z"/>
<path d="M11731 6316 c0 -10 -14 -32 -31 -48 -16 -15 -30 -32 -31 -36 0 -4 -1
-28 -2 -54 -3 -44 -8 -53 -60 -103 -31 -30 -63 -55 -70 -55 -7 0 -32 -9 -55
-20 -22 -11 -52 -20 -65 -20 -49 0 -128 -46 -110 -63 3 -4 0 -7 -8 -7 -11 0
-11 -2 -1 -9 8 -5 15 -38 18 -87 3 -43 7 -85 9 -92 3 -7 5 -161 5 -343 1 -256
4 -340 15 -377 8 -26 15 -74 15 -107 0 -38 6 -69 16 -83 15 -21 14 -22 -18
-22 -26 -1 -29 -3 -16 -10 21 -13 78 -1 78 15 0 8 8 11 20 8 13 -4 29 6 53 31
23 26 44 38 70 42 22 2 37 0 37 -6 0 -6 -4 -8 -10 -5 -5 3 -10 1 -10 -4 0 -6
4 -11 9 -11 19 0 39 31 45 67 9 60 24 196 24 223 0 14 7 57 15 95 8 39 20 117
26 175 7 58 20 141 28 185 10 48 17 137 18 222 1 116 5 146 18 160 14 16 15
35 6 158 -5 77 -14 142 -18 145 -5 3 -11 16 -14 30 -3 17 -5 19 -6 6z m-74
-308 c-3 -8 -6 -5 -6 6 -1 11 2 17 5 13 3 -3 4 -12 1 -19z m-77 -58 c0 -10 4
-20 9 -22 14 -5 -37 -78 -64 -90 -56 -25 -67 60 -15 112 33 33 70 33 70 0z
m-190 -355 l-7 -80 -2 67 c-1 58 6 105 14 96 2 -2 0 -39 -5 -83z m194 -65 c-5
-21 -4 -22 6 -10 10 12 11 12 5 -5 -4 -11 -11 -36 -15 -55 -4 -19 -8 -30 -9
-25 -1 7 -4 6 -9 0 -4 -6 -19 -16 -34 -22 -21 -10 -27 -9 -32 3 -3 8 -13 14
-22 14 -13 0 -14 3 -5 14 6 7 9 20 5 29 -3 8 0 18 5 22 6 3 8 12 5 18 -4 7 -4
9 1 5 4 -4 16 3 26 16 12 16 28 23 48 22 27 -1 29 -4 25 -26z m-215 -200 c0
-58 -3 -110 -7 -117 -4 -6 -6 44 -6 110 1 83 -1 108 -6 77 l-7 -45 -1 40 c-1
22 1 51 5 65 l7 25 7 -25 c4 -14 7 -72 8 -130z m151 36 c0 -3 -4 -8 -10 -11
-5 -3 -10 -1 -10 4 0 6 5 11 10 11 6 0 10 -2 10 -4z m62 -36 c-2 -20 -1 -22 7
-10 14 20 14 7 0 -24 -9 -20 -9 -29 1 -41 11 -13 10 -18 -6 -30 -23 -17 -34
-19 -34 -4 0 5 -4 8 -9 4 -18 -10 -88 -13 -102 -3 -10 7 -8 8 8 3 20 -6 23 -2
29 37 9 52 53 101 86 96 18 -2 22 -9 20 -28z m-82 -130 c0 -5 -4 -10 -10 -10
-5 0 -10 5 -10 10 0 6 5 10 10 10 6 0 10 -4 10 -10z m35 0 c3 -5 2 -10 -4 -10
-5 0 -13 5 -16 10 -3 6 -2 10 4 10 5 0 13 -4 16 -10z m-148 -137 c-2 -16 -4
-3 -4 27 0 30 2 43 4 28 2 -16 2 -40 0 -55z m133 -183 c0 -5 -7 -10 -15 -10
-8 0 -15 5 -15 10 0 6 7 10 15 10 8 0 15 -4 15 -10z m-30 -29 c0 -6 -4 -12 -8
-15 -5 -3 -9 1 -9 9 0 8 4 15 9 15 4 0 8 -4 8 -9z"/>
<path d="M11532 5939 c-23 -9 -47 -54 -36 -70 11 -19 31 -8 52 30 24 43 20 54
-16 40z"/>
<path d="M11524 5516 c-17 -13 -28 -76 -13 -76 4 0 14 9 22 20 8 11 17 18 20
15 4 -3 5 -2 2 1 -2 4 0 15 5 24 13 23 -11 34 -36 16z"/>
<path d="M11520 5305 c-18 -19 -21 -29 -14 -46 9 -20 10 -20 29 -2 11 10 21
24 23 31 1 6 3 17 5 23 4 22 -20 19 -43 -6z"/>
<path d="M12158 6177 c-52 -30 -65 -67 -20 -53 30 10 72 46 72 62 0 19 -8 17
-52 -9z"/>
<path d="M12157 6109 c-36 -19 -56 -44 -44 -56 10 -9 92 42 95 60 4 22 -4 21
-51 -4z"/>
<path d="M12147 6035 c-20 -14 -37 -30 -37 -35 0 -32 99 21 100 53 0 14 -26 7
-63 -18z"/>
<path d="M12995 5814 c-16 -8 -33 -21 -38 -27 -9 -13 -1 -670 10 -797 5 -64
10 -78 34 -102 19 -20 38 -28 62 -28 19 0 178 33 353 74 358 83 429 94 438 70
3 -8 11 -101 18 -206 10 -167 13 -188 24 -162 37 88 66 497 43 604 -17 81 -71
199 -108 235 -59 60 -75 52 -199 -93 -56 -66 -98 -92 -262 -164 -96 -43 -144
-48 -160 -19 -6 12 -10 121 -10 284 0 256 -1 265 -22 292 -41 52 -124 70 -183
39z"/>
<path d="M12371 5555 c-112 -63 -210 -120 -217 -126 -17 -14 -18 -29 -1 -28
20 0 440 243 445 257 8 25 -28 9 -227 -103z"/>
<path d="M12277 5411 c-60 -33 -115 -65 -123 -71 -17 -15 -18 -30 -1 -30 20 1
250 134 255 148 7 23 -23 12 -131 -47z"/>
<path d="M11342 4940 c0 -14 2 -19 5 -12 2 6 2 18 0 25 -3 6 -5 1 -5 -13z"/>
<path d="M11530 4838 c0 -4 4 -8 9 -8 6 0 12 4 15 8 3 5 -1 9 -9 9 -8 0 -15
-4 -15 -9z"/>
<path d="M15060 4238 c0 -9 5 -20 10 -23 13 -8 13 5 0 25 -8 13 -10 13 -10 -2z"/>
<path d="M14665 4013 c-538 -287 -529 -283 -598 -283 -42 0 -75 7 -106 22 -55
26 -64 37 -45 55 24 24 36 95 32 185 -4 82 -10 109 -23 96 -4 -3 -19 -59 -36
-124 -16 -66 -32 -127 -35 -136 -4 -12 3 -22 21 -30 l27 -12 -4 -425 c-6 -581
2 -789 36 -961 46 -232 206 -1004 214 -1034 5 -20 17 -33 36 -39 33 -11 41 -5
28 20 -5 10 -12 69 -16 131 -4 61 -13 127 -21 145 -11 27 -12 49 -4 103 6 38
8 87 5 109 -6 40 10 84 21 58 2 -7 11 -13 20 -13 17 0 43 -24 43 -40 0 -6 7
-18 15 -26 8 -9 15 -29 15 -45 0 -16 4 -29 9 -29 4 0 14 -27 21 -60 13 -61 22
-72 37 -45 10 17 6 73 -38 565 l-33 355 23 420 c13 231 26 471 29 533 l7 113
93 49 c75 41 92 47 92 32 0 -9 -11 -123 -24 -252 -42 -398 -51 -569 -37 -663
21 -141 159 -872 180 -957 5 -19 12 -55 16 -79 6 -39 5 -43 -11 -38 -11 3 -37
8 -59 12 -22 4 -54 20 -73 36 -56 50 -102 35 -102 -33 0 -68 47 -127 143 -182
73 -42 116 -84 147 -146 42 -83 78 -110 146 -110 83 0 93 15 87 131 -4 60 -10
99 -19 109 -12 13 -14 13 -14 0 -1 -23 -48 -52 -86 -53 -27 -1 -43 7 -72 36
-38 38 -39 44 -42 165 0 13 -9 55 -19 95 -19 71 -29 138 -51 352 -6 61 -16
128 -22 150 -28 109 -46 521 -29 669 6 54 23 132 36 173 14 40 25 84 25 97 0
14 7 31 15 40 8 8 15 22 15 30 0 9 5 16 11 16 6 0 8 7 5 16 -3 8 1 22 9 30 8
9 15 33 15 55 0 21 5 39 10 39 6 0 10 9 10 20 0 11 5 20 10 20 6 0 10 9 10 20
0 11 5 20 10 20 6 0 10 9 10 20 0 11 5 20 10 20 6 0 10 9 10 20 0 11 5 20 10
20 6 0 10 18 10 40 0 33 3 40 20 40 13 0 20 7 20 20 0 11 5 20 10 20 6 0 10
23 10 50 0 28 5 50 10 50 6 0 10 9 10 20 0 12 7 20 16 20 22 0 53 32 36 38
-18 6 -15 52 3 52 10 0 15 10 16 28 0 24 1 25 9 7 9 -20 8 -5 -5 128 -4 31 -9
57 -13 56 -4 0 -137 -71 -297 -156z"/>
<path d="M14967 3899 c4 -13 8 -18 11 -10 2 7 -1 18 -6 23 -8 8 -9 4 -5 -13z"/>
<path d="M14970 3835 c0 -8 5 -15 10 -15 6 0 10 7 10 15 0 8 -4 15 -10 15 -5
0 -10 -7 -10 -15z"/>
<path d="M14961 3724 c0 -11 3 -14 6 -6 3 7 2 16 -1 19 -3 4 -6 -2 -5 -13z"/>
<path d="M11225 3210 c-17 -26 -35 -131 -25 -150 5 -9 45 -51 90 -93 97 -91
156 -118 270 -120 69 -2 75 0 78 19 2 14 -24 58 -75 127 -43 58 -80 106 -83
106 -3 1 -6 -11 -5 -26 0 -26 -3 -28 -40 -27 -82 1 -191 83 -197 147 -2 25 -5
29 -13 17z"/>
<path d="M10825 3040 c-10 -15 -33 -110 -34 -140 -1 -22 162 -174 212 -198 24
-11 83 -26 131 -33 135 -19 138 1 25 151 -89 119 -93 122 -87 88 7 -37 -12
-52 -54 -43 -85 19 -167 89 -177 152 -5 29 -9 35 -16 23z"/>
<path d="M14813 2762 c-28 -4 -53 -89 -30 -104 6 -3 11 -15 12 -25 1 -10 8
-37 15 -61 11 -34 11 -45 1 -51 -15 -10 -4 -41 15 -41 8 0 14 11 15 28 1 18 3
21 6 9 3 -11 2 -35 -2 -55 -5 -26 -9 -32 -16 -21 -7 11 -9 11 -9 -3 0 -10 5
-18 10 -18 6 0 11 -12 11 -27 1 -16 5 -1 10 32 7 47 -4 308 -14 335 -1 3 -12
4 -24 2z"/>
<path d="M13679 1278 c-14 -23 -18 -43 -15 -67 11 -70 78 -111 241 -146 190
-41 232 -54 319 -96 85 -41 116 -46 179 -28 69 19 80 69 46 221 -13 57 -37 84
-31 35 3 -24 -2 -38 -18 -52 -19 -17 -36 -20 -119 -20 -107 0 -172 18 -211 60
-25 27 -21 55 9 55 11 0 23 5 26 10 4 6 -26 10 -84 10 -69 0 -109 6 -168 25
-43 14 -95 25 -116 25 -31 0 -41 -5 -58 -32z"/>
</g>
</svg>
